<svg xmlns="http://www.w3.org/2000/svg" xmlns:xlink="http://www.w3.org/1999/xlink" xmlns:lucid="lucid" width="2311" height="1051"><g transform="translate(-149 -49)" lucid:page-tab-id="0_0"><path d="M0 0h1760v1360H0z" fill="#fff"/><path d="M740 445c0-2.76 2.24-5 5-5h350c2.76 0 5 2.24 5 5v230c0 2.76-2.24 5-5 5H745c-2.76 0-5-2.24-5-5z" stroke="#000" stroke-width="2" fill="#fff"/><path d="M740 478h360m-360 47h360" stroke="#000" stroke-width="2" fill="none"/><use xlink:href="#a" transform="matrix(1,0,0,1,748,440) translate(77.1 22.6)"/><use xlink:href="#b" transform="matrix(1,0,0,1,748,440) translate(131.1 22.6)"/><use xlink:href="#c" transform="matrix(1,0,0,1,752,532.6930693069307) translate(0 30.39999999999999)"/><use xlink:href="#d" transform="matrix(1,0,0,1,752,532.6930693069307) translate(15.5 30.39999999999999)"/><use xlink:href="#c" transform="matrix(1,0,0,1,752,532.6930693069307) translate(0 51.99999999999999)"/><use xlink:href="#e" transform="matrix(1,0,0,1,752,532.6930693069307) translate(15.5 51.99999999999999)"/><use xlink:href="#c" transform="matrix(1,0,0,1,752,532.6930693069307) translate(0 73.6)"/><use xlink:href="#f" transform="matrix(1,0,0,1,752,532.6930693069307) translate(15.5 73.6)"/><use xlink:href="#c" transform="matrix(1,0,0,1,752,532.6930693069307) translate(0 95.20000000000002)"/><use xlink:href="#g" transform="matrix(1,0,0,1,752,532.6930693069307) translate(15.5 95.20000000000002)"/><use xlink:href="#c" transform="matrix(1,0,0,1,752,532.6930693069307) translate(0 116.80000000000001)"/><use xlink:href="#h" transform="matrix(1,0,0,1,752,532.6930693069307) translate(15.5 116.80000000000001)"/><path d="M1400 445c0-2.76 2.24-5 5-5h350c2.76 0 5 2.24 5 5v230c0 2.76-2.24 5-5 5h-350c-2.76 0-5-2.24-5-5z" stroke="#000" stroke-width="2" fill="#fff"/><path d="M1400 478h360m-360 78h360" stroke="#000" stroke-width="2" fill="none"/><use xlink:href="#i" transform="matrix(1,0,0,1,1408,440) translate(89.44999999999999 22.6)"/><use xlink:href="#j" transform="matrix(1,0,0,1,1408,440) translate(153.64999999999998 22.6)"/><use xlink:href="#c" transform="matrix(1,0,0,1,1412,564.2181818181818) translate(0 46.8)"/><use xlink:href="#k" transform="matrix(1,0,0,1,1412,564.2181818181818) translate(15.5 46.8)"/><use xlink:href="#c" transform="matrix(1,0,0,1,1412,564.2181818181818) translate(0 68.4)"/><use xlink:href="#l" transform="matrix(1,0,0,1,1412,564.2181818181818) translate(15.5 68.4)"/><path d="M1100 560h299" stroke="#000" stroke-width="2" fill="none"/><path/><path d="M1400 559.43v1.14l-17.7 10.47-1.02-1.72 15.76-9.32-15.76-9.32 1-1.72z"/><path d="M1400 125c0-2.76 2.24-5 5-5h350c2.76 0 5 2.24 5 5v230c0 2.76-2.24 5-5 5h-350c-2.76 0-5-2.24-5-5z" stroke="#000" stroke-width="2" fill="#fff"/><path d="M1400 158h360m-360 101h360" stroke="#000" stroke-width="2" fill="none"/><use xlink:href="#m" transform="matrix(1,0,0,1,1408,120) translate(70.15 22.6)"/><use xlink:href="#n" transform="matrix(1,0,0,1,1408,120) translate(192.25 22.6)"/><use xlink:href="#c" transform="matrix(1,0,0,1,1412,266.8) translate(0 46.6)"/><use xlink:href="#o" transform="matrix(1,0,0,1,1412,266.8) translate(15.5 46.6)"/><path d="M1580 360v79" stroke="#000" stroke-width="2" fill="none"/><path/><path d="M1591.04 422.3l-10.47 17.7h-1.14l-10.47-17.7 1.72-1.02 9.32 15.76 9.32-15.76zM1768.75 561H1760v-2h8.75zm26.25 0h-17.5v-2h17.5zm26.25 0h-17.5v-2h17.5zm26.25 0H1830v-2h17.5zm23.5-5.92l-.3 1.9-2.13 2.9-3.4 1.12h-8.92v-2h8.6l2.5-.82 1.45-2 .2-1.26v-10.25h2zm0-20.75h-2v-20.66h2zm0-31h-2v-20.66h2zm0-31h-2v-20.66h2zm0-31h-2v-20.66h2zm0-62h-2v-20.66h2zm0-31h-2v-20.66h2zm0-31h-2v-20.66h2zm0-31h-2v-20.66h2zm-4.02-47.02l2.9 2.13 1.12 3.4v10.5h-2v-10.17l-.82-2.5-2-1.46-1.26-.2h-8.67v-2h8.83zm-19.48 1.7H1830v-2h17.5zm-26.25 0h-17.5v-2h17.5zm-26.25 0h-17.5v-2h17.5zm-26.25 0H1760v-2h8.75z"/><path/><path d="M1777.72 230.68l-15.76 9.32 15.76 9.32-1 1.72-16.72-9.88v-2.32l16.7-9.88z"/><use xlink:href="#p" transform="matrix(1,0,0,1,1834.5,389.2) translate(0 14.4)"/><path d="M921 440h-2v-10.6h2zm0-21.22h-2v-21.22h2zm0-31.83h-2v-21.22h2zm0-31.83h-2V333.9h2zm13.88-46.44h-9.72l-2.5.8-1.46 2-.2 1.28v10.53h-2v-10.7l.3-1.9 2.13-2.9 3.4-1.12h10.04zm464.12 0h-9.88v-2h9.88zm-19.75 0h-19.75v-2h19.75zm-29.63 0h-19.74v-2h19.74zm-29.62 0h-19.75v-2H1320zm-29.63 0h-19.74v-2h19.74zm-29.62 0H1241v-2h19.75zm-29.63 0h-19.74v-2h19.74zm-29.62 0h-19.75v-2h19.75zm-118.5 0h-19.75v-2H1083zm-29.63 0h-19.74v-2h19.74zm-29.62 0H1004v-2h19.75zm-29.63 0h-19.75v-2h19.75zm-29.62 0h-19.75v-2h19.75zm207.38 0h-8.27v-2h8.28zM1400 308.68h-1v-2h1z"/><path d="M931.04 423.3l-9.88 16.7h-2.32l-9.88-16.7 1.72-1.02 9.32 15.76 9.32-15.76z"/><use xlink:href="#p" transform="matrix(1,0,0,1,1092.6126125813853,296.8784329004145) translate(0 14.4)"/><path d="M200 125c0-2.76 2.24-5 5-5h370c2.76 0 5 2.24 5 5v230c0 2.76-2.24 5-5 5H205c-2.76 0-5-2.24-5-5z" stroke="#000" stroke-width="2" fill="#fff"/><path d="M200 179h380" stroke="#000" stroke-width="2" fill="none"/><use xlink:href="#q" transform="matrix(1,0,0,1,207.99999999999997,120) translate(129.075 22.799999999999997)"/><use xlink:href="#r" transform="matrix(1,0,0,1,207.99999999999997,120) translate(131.575 44.4)"/><use xlink:href="#c" transform="matrix(1,0,0,1,211.99999999999997,187.2) translate(0 86.10000000000001)"/><use xlink:href="#s" transform="matrix(1,0,0,1,211.99999999999997,187.2) translate(15.5 86.10000000000001)"/><use xlink:href="#t" transform="matrix(1,0,0,1,211.99999999999997,187.2) translate(154.25 86.10000000000001)"/><path d="M681 395.16l-1.1 3.4-2.92 2.13-1.9.3H165.16l-2.5.82-1.46 2-.2 1.26v149.76l.82 2.5 2 1.46 1.26.2H200v2h-35.08l-1.9-.3-2.9-2.13-1.12-3.4V404.9l.3-1.9 2.13-2.9 3.4-1.12h510.1l1.25-.2 2-1.46.82-2.5V250.8h2zM580 241v-2h36.44v2z"/><path d="M597.72 230.68L581.96 240l15.76 9.32-1 1.72-16.72-9.88v-2.32l16.7-9.88z"/><path d="M200 560l-14.85 14.85L170 560l15.15-14.85z" fill="#fff"/><path d="M200 558.6v2.8l-14.84 14.86-16.6-16.26 16.6-16.26zm-28.57 1.4l13.7 13.44L198.6 560l-13.46-13.44z"/><use xlink:href="#u" transform="matrix(1,0,0,1,616.4372941340098,229.2) translate(0 14.4)"/><path d="M1400 845c0-2.76 2.24-5 5-5h350c2.76 0 5 2.24 5 5v230c0 2.76-2.24 5-5 5h-350c-2.76 0-5-2.24-5-5z" stroke="#000" stroke-width="2" fill="#fff"/><path d="M1400 899h360" stroke="#000" stroke-width="2" fill="none"/><use xlink:href="#q" transform="matrix(1,0,0,1,1408,840) translate(119.07499999999999 22.799999999999997)"/><use xlink:href="#v" transform="matrix(1,0,0,1,1408,840) translate(128.575 44.4)"/><use xlink:href="#c" transform="matrix(1,0,0,1,1412,907.2) translate(0 86.10000000000001)"/><use xlink:href="#w" transform="matrix(1,0,0,1,1412,907.2) translate(15.5 86.10000000000001)"/><path d="M740 845c0-2.76 2.24-5 5-5h350c2.76 0 5 2.24 5 5v230c0 2.76-2.24 5-5 5H745c-2.76 0-5-2.24-5-5z" stroke="#000" stroke-width="2" fill="#fff"/><path d="M740 899h360" stroke="#000" stroke-width="2" fill="none"/><use xlink:href="#q" transform="matrix(1,0,0,1,748,840) translate(119.07499999999999 22.799999999999997)"/><use xlink:href="#x" transform="matrix(1,0,0,1,748,840) translate(142.075 44.4)"/><use xlink:href="#c" transform="matrix(1,0,0,1,752,907.2) translate(0 86.10000000000001)"/><use xlink:href="#l" transform="matrix(1,0,0,1,752,907.2) translate(15.5 86.10000000000001)"/><path d="M740 560H581.06" fill="none"/><path d="M740 560h-10.6m-10.6 0h-21.2m-10.58 0h-21.2m-10.6 0h-21.18m-10.6 0h-21.2m-10.6 0h-10.58" stroke="#000" stroke-width="2" fill="none"/><path/><path d="M602.57 572.73L581.07 560l21.5-12.73z" fill="#fff"/><path d="M603.57 574.48L580 560.54v-1.08l23.57-13.94zM583.02 560l18.55 10.97v-21.94z"/><path d="M1580 120V65c0-2.76-2.24-5-5-5H395c-2.76 0-5 2.24-5 5v55" fill="none"/><path d="M1580 120v-9.17m0-9.16V83.33m0-9.16V65l-.96-2.95-2.46-1.8L1575 60h-10.1m-10.07 0h-20.17m-10.1 0h-20.16m-10.08 0h-20.17m-10.1 0h-20.16m-10.1 0h-20.17m-10.08 0h-20.17m-10.1 0h-20.16m-10.1 0h-20.16m-10.08 0h-20.17m-10.08 0h-20.17m-10.1 0h-20.16m-10.1 0h-20.16m-10.1 0h-20.16m-10.08 0h-20.18m-10.08 0h-20.17m-10.1 0h-20.16m-10.07 0h-20.17m-10.1 0h-20.16m-10.1 0h-20.16m-10.08 0H959.8m-10.1 0h-20.17m-10.1 0h-20.16m-10.08 0H869m-10.1 0h-20.16m-10.08 0H808.5m-10.08 0h-20.17m-10.1 0H748m-10.1 0h-20.16m-10.1 0H687.5m-10.1 0h-20.16m-10.08 0h-20.17m-10.1 0h-20.16m-10.08 0h-20.17m-10.08 0H536.2m-10.1 0h-20.16m-10.1 0H475.7m-10.08 0h-20.17m-10.1 0h-20.16m-10.08 0H395l-2.95.96-1.8 2.46L390 65v9.17m0 9.16v18.34m0 9.16V120" stroke="#000" stroke-width="2" fill="none"/><path/><path d="M390 120l-12.73-21.52h25.46z" fill="#fff"/><path d="M391.16 120h-2.32l-13.32-22.52h28.96zm-12.13-20.52L390 118.04l10.97-18.56z"/><path d="M200 845c0-2.76 2.24-5 5-5h370c2.76 0 5 2.24 5 5v230c0 2.76-2.24 5-5 5H205c-2.76 0-5-2.24-5-5z" stroke="#000" stroke-width="2" fill="#fff"/><path d="M200 899h380" stroke="#000" stroke-width="2" fill="none"/><use xlink:href="#y" transform="matrix(1,0,0,1,207.99999999999997,840) translate(129.075 22.799999999999997)"/><use xlink:href="#z" transform="matrix(1,0,0,1,207.99999999999997,840) translate(130.6 44.4)"/><use xlink:href="#A" transform="matrix(1,0,0,1,211.99999999999997,907.2) translate(0 64.5)"/><use xlink:href="#B" transform="matrix(1,0,0,1,211.99999999999997,907.2) translate(15.5 64.5)"/><use xlink:href="#C" transform="matrix(1,0,0,1,211.99999999999997,907.2) translate(180.4 64.5)"/><use xlink:href="#A" transform="matrix(1,0,0,1,211.99999999999997,907.2) translate(0 86.10000000000001)"/><use xlink:href="#D" transform="matrix(1,0,0,1,211.99999999999997,907.2) translate(15.5 86.10000000000001)"/><use xlink:href="#C" transform="matrix(1,0,0,1,211.99999999999997,907.2) translate(197.4 86.10000000000001)"/><use xlink:href="#A" transform="matrix(1,0,0,1,211.99999999999997,907.2) translate(0 107.70000000000002)"/><use xlink:href="#E" transform="matrix(1,0,0,1,211.99999999999997,907.2) translate(15.5 107.70000000000002)"/><use xlink:href="#F" transform="matrix(1,0,0,1,211.99999999999997,907.2) translate(207.35000000000002 107.70000000000002)"/><path d="M837.92 681v74.5c0 2.76-2.24 5-5 5H395c-2.76 0-5 2.24-5 5V840" fill="none"/><path d="M837.92 681v12.42m0 12.4v24.85m0 12.4v12.43l-.97 2.95-2.45 1.8-1.58.25h-9.73m-9.75 0H794m-9.74 0H764.8m-9.73 0H735.6m-9.73 0H706.4m-9.72 0H677.2m-9.72 0h-19.46m-9.73 0H618.8m-9.73 0h-19.47m-9.73 0h-19.46m-9.74 0h-19.46m-9.73 0h-19.45m-9.73 0h-19.47m-9.73 0h-19.46m-9.73 0h-19.47m-9.73 0H395l-2.95.96-1.8 2.46-.25 1.58v12.42m0 12.4v24.85m0 12.4V840" stroke="#000" stroke-width="2" fill="none"/><path d="M838.92 681h-2v-1h2z"/><path d="M390 840l-12.73-21.52h25.46z" fill="#fff"/><path d="M391.16 840h-2.32l-13.32-22.52h28.96zm-12.13-20.52L390 838.04l10.97-18.56z"/><path d="M2080 125c0-2.76 2.24-5 5-5h350c2.76 0 5 2.24 5 5v230c0 2.76-2.24 5-5 5h-350c-2.76 0-5-2.24-5-5z" stroke="#000" stroke-width="2" fill="#fff"/><path d="M2080 158h360m-360 101h360" stroke="#000" stroke-width="2" fill="none"/><g><use xlink:href="#G" transform="matrix(1,0,0,1,2088,120) translate(144.525 22.6)"/></g><g><use xlink:href="#A" transform="matrix(1,0,0,1,2092,266.8) translate(0 46.6)"/><use xlink:href="#H" transform="matrix(1,0,0,1,2092,266.8) translate(15.5 46.6)"/><use xlink:href="#I" transform="matrix(1,0,0,1,2092,266.8) translate(137.3 46.6)"/></g><path d="M1761 184.95h154.5c2.76 0 5 2.23 5 5V235c0 2.76 2.24 5 5 5H2080" stroke="#000" stroke-width="2" fill="none"/><path d="M1761 185.95h-1v-2h1z"/><path d="M2080 240l-21.52 12.73v-25.46z" fill="#fff"/><path d="M2080 238.84v2.32l-22.52 13.32v-28.96zm-20.52 12.13l18.56-10.97-18.56-10.97zM921 839h-2v-27.9h2zm0-49.5h-2V680h2z"/><path d="M934.85 694.85L920 710l-14.85-15.15L920 680z" fill="#fff"/><path d="M936.26 694.84L920 711.44l-16.26-16.6L918.6 680h2.8zm-29.7.02l13.44 13.7 13.44-13.7L920 681.4zM931.04 822.3L920.57 840h-1.14l-10.47-17.7 1.72-1.02 9.32 15.76 9.32-15.76z"/><g><use xlink:href="#J" transform="matrix(1,0,0,1,888,789.4915817965062) translate(0 14.4)"/></g><path d="M1581 839h-2v-27.9h2zm0-49.5h-2V680h2z"/><path d="M1594.85 694.85L1580 710l-14.85-15.15L1580 680z" fill="#fff"/><path d="M1596.26 694.84l-16.26 16.6-16.26-16.6L1578.6 680h2.8zm-29.7.02l13.44 13.7 13.44-13.7L1580 681.4zM1591.04 822.3l-10.47 17.7h-1.14l-10.47-17.7 1.72-1.02 9.32 15.76 9.32-15.76z"/><g><use xlink:href="#K" transform="matrix(1,0,0,1,1535.55,789.4915817965062) translate(0 14.4)"/></g><path d="M200 445c0-2.76 2.24-5 5-5h370c2.76 0 5 2.24 5 5v230c0 2.76-2.24 5-5 5H205c-2.76 0-5-2.24-5-5z" stroke="#000" stroke-width="2" fill="#fff"/><path d="M200 499h380" stroke="#000" stroke-width="2" fill="none"/><g><use xlink:href="#y" transform="matrix(1,0,0,1,208,440) translate(129.075 22.799999999999997)"/><use xlink:href="#L" transform="matrix(1,0,0,1,208,440) translate(154.575 44.4)"/></g><g><use xlink:href="#A" transform="matrix(1,0,0,1,212,507.2) translate(0 64.5)"/><use xlink:href="#M" transform="matrix(1,0,0,1,212,507.2) translate(15.5 64.5)"/><use xlink:href="#N" transform="matrix(1,0,0,1,212,507.2) translate(276.15 64.5)"/><use xlink:href="#A" transform="matrix(1,0,0,1,212,507.2) translate(0 86.10000000000001)"/><use xlink:href="#O" transform="matrix(1,0,0,1,212,507.2) translate(15.5 86.10000000000001)"/><use xlink:href="#P" transform="matrix(1,0,0,1,212,507.2) translate(199.2 86.10000000000001)"/><use xlink:href="#A" transform="matrix(1,0,0,1,212,507.2) translate(0 107.70000000000002)"/><use xlink:href="#Q" transform="matrix(1,0,0,1,212,507.2) translate(15.5 107.70000000000002)"/></g><defs><path d="M29-66c0 49 71 55 82 11 13-52 22-111 33-165H93l5-28h85L149-74C151 11 7 37-1-60" id="R"/><path d="M67 3c-93-2-31-127-26-193h32L48-50c-3 39 53 32 70 12 30-34 30-101 43-152h32L157 0h-30c1-10 6-24 4-33-14 20-29 37-64 36" id="S"/><path d="M111-194c62-3 86 47 72 106H45c-7 38 6 69 45 68 27-1 43-14 53-32l24 11C152-15 129 4 87 4 38 3 12-23 12-71c0-70 32-119 99-123zm44 81c14-66-71-72-95-28-4 8-8 17-11 28h106" id="T"/><path d="M103-194c29 0 47 14 56 36 2-11 5-23 8-32h30L160-5C157 61 82 97 21 62 9 55 4 45 1 30l28-7c7 42 83 31 92-3 4-16 9-38 13-55-13 20-29 36-62 36-40 0-60-25-60-64 0-71 23-131 91-131zm4 24c-53 0-58 54-61 104-2 27 10 44 36 44 49 0 65-50 67-102 1-29-15-46-42-46" id="U"/><path d="M30-147c31-64 166-65 159 27C183-49 158 1 86 4 9 8 1-88 30-147zM88-20c53 0 68-48 68-100 0-31-11-51-44-50-52 1-68 46-68 97 0 32 13 53 44 53" id="V"/><g id="a"><use transform="matrix(0.05,0,0,0.05,0,0)" xlink:href="#R"/><use transform="matrix(0.05,0,0,0.05,9,0)" xlink:href="#S"/><use transform="matrix(0.05,0,0,0.05,19,0)" xlink:href="#T"/><use transform="matrix(0.05,0,0,0.05,29,0)" xlink:href="#U"/><use transform="matrix(0.05,0,0,0.05,39,0)" xlink:href="#V"/></g><path d="M23-100v-36l175-74v27L47-118l151 64v27" id="W"/><path d="M125-24c46 0 70-25 89-51l25 16C214-24 183 4 123 4 8 4-5-146 60-208c32-50 158-61 191-5 5 7 9 14 11 22l-32 10c-9-28-33-43-69-43-74 0-108 51-108 125 0 46 24 75 72 75" id="X"/><path d="M67-158c22-48 132-52 116 29L158 0h-32l25-140c3-38-53-32-70-12C52-117 51-52 38 0H6l36-190h30" id="Y"/><path d="M51-54c-9 22 5 41 31 30L79-1C43 14 10-4 19-52l22-115H19l5-23h22l19-43h21l-9 43h35l-4 23H73" id="Z"/><path d="M66-151c12-25 30-51 66-40l-6 26C45-176 58-65 38 0H6l36-190h30" id="aa"/><path d="M6 0l50-261h32L37 0H6" id="ab"/><path d="M165-48c-4 18 1 34 23 27l-3 20c-29 8-62 0-52-35h-2C116-14 99 4 63 4 30 4 8-16 8-49c0-68 71-67 138-67 10-26 0-56-31-54-26 1-42 9-47 31l-32-5c8-67 160-71 144 15-5 28-9 54-15 81zM42-50c3 52 80 24 89-6 7-12 7-24 11-38-47 1-103-4-100 44" id="ac"/><path d="M133-28C103 26-5 8 13-77c13-62 24-115 90-117 29-1 46 15 56 35l19-102h32L160 0h-30zM45-64c-2 27 10 43 35 43 54-1 69-50 69-103 0-29-15-46-42-46-53-1-58 58-62 106" id="ad"/><path d="M23-27v-27l151-64-151-65v-27l175 74v36" id="ae"/><g id="b"><use transform="matrix(0.05,0,0,0.05,0,0)" xlink:href="#W"/><use transform="matrix(0.05,0,0,0.05,10.5,0)" xlink:href="#W"/><use transform="matrix(0.05,0,0,0.05,21,0)" xlink:href="#X"/><use transform="matrix(0.05,0,0,0.05,33.95,0)" xlink:href="#V"/><use transform="matrix(0.05,0,0,0.05,43.95,0)" xlink:href="#Y"/><use transform="matrix(0.05,0,0,0.05,53.95,0)" xlink:href="#Z"/><use transform="matrix(0.05,0,0,0.05,58.95,0)" xlink:href="#aa"/><use transform="matrix(0.05,0,0,0.05,64.9,0)" xlink:href="#V"/><use transform="matrix(0.05,0,0,0.05,74.9,0)" xlink:href="#ab"/><use transform="matrix(0.05,0,0,0.05,78.85000000000001,0)" xlink:href="#ac"/><use transform="matrix(0.05,0,0,0.05,88.85000000000001,0)" xlink:href="#ad"/><use transform="matrix(0.05,0,0,0.05,98.85000000000001,0)" xlink:href="#V"/><use transform="matrix(0.05,0,0,0.05,108.85000000000001,0)" xlink:href="#aa"/><use transform="matrix(0.05,0,0,0.05,114.80000000000001,0)" xlink:href="#ae"/><use transform="matrix(0.05,0,0,0.05,125.30000000000001,0)" xlink:href="#ae"/></g><path d="M118-107v75H92v-75H18v-26h74v-75h26v75h74v26h-74" id="af"/><use transform="matrix(0.05,0,0,0.05,0,0)" xlink:href="#af" id="c"/><path d="M24-231v-30h32v30H24zM24 0v-190h32V0H24" id="ag"/><path d="M117-194c89-4 53 116 60 194h-32v-121c0-31-8-49-39-48C34-167 62-67 57 0H25l-1-190h30c1 10-1 24 2 32 11-22 29-35 61-36" id="ah"/><path d="M96-169c-40 0-48 33-48 73s9 75 48 75c24 0 41-14 43-38l32 2c-6 37-31 61-74 61-59 0-76-41-82-99-10-93 101-131 147-64 4 7 5 14 7 22l-32 3c-4-21-16-35-41-35" id="ai"/><path d="M141-36C126-15 110 5 73 4 37 3 15-17 15-53c-1-64 63-63 125-63 3-35-9-54-41-54-24 1-41 7-42 31l-33-3c5-37 33-52 76-52 45 0 72 20 72 64v82c-1 20 7 32 28 27v20c-31 9-61-2-59-35zM48-53c0 20 12 33 32 33 41-3 63-29 60-74-43 2-92-5-92 41" id="aj"/><path d="M114-163C36-179 61-72 57 0H25l-1-190h30c1 12-1 29 2 39 6-27 23-49 58-41v29" id="ak"/><path d="M153-248C145-148 188 4 80 4 36 3 13-21 6-62l32-5c4 25 16 42 43 43 27 0 39-20 39-49v-147H72v-28h81" id="al"/><path d="M84 4C-5 8 30-112 23-190h32v120c0 31 7 50 39 49 72-2 45-101 50-169h31l1 190h-30c-1-10 1-25-2-33-11 22-28 36-60 37" id="am"/><path d="M100-194c63 0 86 42 84 106H49c0 40 14 67 53 68 26 1 43-12 49-29l28 8c-11 28-37 45-77 45C44 4 14-33 15-96c1-61 26-98 85-98zm52 81c6-60-76-77-97-28-3 7-6 17-6 28h103" id="an"/><path d="M177-190C167-65 218 103 67 71c-23-6-38-20-44-43l32-5c15 47 100 32 89-28v-30C133-14 115 1 83 1 29 1 15-40 15-95c0-56 16-97 71-98 29-1 48 16 59 35 1-10 0-23 2-32h30zM94-22c36 0 50-32 50-73 0-42-14-75-50-75-39 0-46 34-46 75s6 73 46 73" id="ao"/><path d="M100-194c62-1 85 37 85 99 1 63-27 99-86 99S16-35 15-95c0-66 28-99 85-99zM99-20c44 1 53-31 53-75 0-43-8-75-51-75s-53 32-53 75 10 74 51 75" id="ap"/><path d="M87 75C49 33 22-17 22-94c0-76 28-126 65-167h31c-38 41-64 92-64 168S80 34 118 75H87" id="aq"/><path d="M33-261c38 41 65 92 65 168S71 34 33 75H2C39 34 66-17 66-93S39-220 2-261h31" id="ar"/><path d="M33-154v-36h34v36H33zM33 0v-36h34V0H33" id="as"/><path d="M108 0H70L1-190h34L89-25l56-165h34" id="at"/><path d="M85-194c31 0 48 13 60 33l-1-100h32l1 261h-30c-2-10 0-23-3-31C134-8 116 4 85 4 32 4 16-35 15-94c0-66 23-100 70-100zm9 24c-40 0-46 34-46 75 0 40 6 74 45 74 42 0 51-32 51-76 0-42-9-74-50-73" id="au"/><g id="d"><use transform="matrix(0.05,0,0,0.05,0,0)" xlink:href="#ag"/><use transform="matrix(0.05,0,0,0.05,3.95,0)" xlink:href="#ah"/><use transform="matrix(0.05,0,0,0.05,13.949999999999998,0)" xlink:href="#ag"/><use transform="matrix(0.05,0,0,0.05,17.9,0)" xlink:href="#ai"/><use transform="matrix(0.05,0,0,0.05,26.899999999999995,0)" xlink:href="#ag"/><use transform="matrix(0.05,0,0,0.05,30.849999999999994,0)" xlink:href="#aj"/><use transform="matrix(0.05,0,0,0.05,40.849999999999994,0)" xlink:href="#ak"/><use transform="matrix(0.05,0,0,0.05,46.8,0)" xlink:href="#al"/><use transform="matrix(0.05,0,0,0.05,55.79999999999999,0)" xlink:href="#am"/><use transform="matrix(0.05,0,0,0.05,65.8,0)" xlink:href="#an"/><use transform="matrix(0.05,0,0,0.05,75.8,0)" xlink:href="#ao"/><use transform="matrix(0.05,0,0,0.05,85.8,0)" xlink:href="#ap"/><use transform="matrix(0.05,0,0,0.05,95.8,0)" xlink:href="#aq"/><use transform="matrix(0.05,0,0,0.05,101.75,0)" xlink:href="#ar"/><use transform="matrix(0.05,0,0,0.05,107.7,0)" xlink:href="#as"/><use transform="matrix(0.05,0,0,0.05,112.7,0)" xlink:href="#at"/><use transform="matrix(0.05,0,0,0.05,121.7,0)" xlink:href="#ap"/><use transform="matrix(0.05,0,0,0.05,131.7,0)" xlink:href="#ag"/><use transform="matrix(0.05,0,0,0.05,135.64999999999998,0)" xlink:href="#au"/></g><path d="M59-47c-2 24 18 29 38 22v24C64 9 27 4 27-40v-127H5v-23h24l9-43h21v43h35v23H59v120" id="av"/><path d="M210-169c-67 3-38 105-44 169h-31v-121c0-29-5-50-35-48C34-165 62-65 56 0H25l-1-190h30c1 10-1 24 2 32 10-44 99-50 107 0 11-21 27-35 58-36 85-2 47 119 55 194h-31v-121c0-29-5-49-35-48" id="aw"/><g id="e"><use transform="matrix(0.05,0,0,0.05,0,0)" xlink:href="#av"/><use transform="matrix(0.05,0,0,0.05,5,0)" xlink:href="#an"/><use transform="matrix(0.05,0,0,0.05,15,0)" xlink:href="#ak"/><use transform="matrix(0.05,0,0,0.05,20.95,0)" xlink:href="#aw"/><use transform="matrix(0.05,0,0,0.05,35.9,0)" xlink:href="#ag"/><use transform="matrix(0.05,0,0,0.05,39.85,0)" xlink:href="#ah"/><use transform="matrix(0.05,0,0,0.05,49.85,0)" xlink:href="#aj"/><use transform="matrix(0.05,0,0,0.05,59.85,0)" xlink:href="#ak"/><use transform="matrix(0.05,0,0,0.05,65.8,0)" xlink:href="#al"/><use transform="matrix(0.05,0,0,0.05,74.8,0)" xlink:href="#am"/><use transform="matrix(0.05,0,0,0.05,84.8,0)" xlink:href="#an"/><use transform="matrix(0.05,0,0,0.05,94.8,0)" xlink:href="#ao"/><use transform="matrix(0.05,0,0,0.05,104.80000000000001,0)" xlink:href="#ap"/><use transform="matrix(0.05,0,0,0.05,114.80000000000001,0)" xlink:href="#aq"/><use transform="matrix(0.05,0,0,0.05,120.75,0)" xlink:href="#ar"/><use transform="matrix(0.05,0,0,0.05,126.7,0)" xlink:href="#as"/><use transform="matrix(0.05,0,0,0.05,131.7,0)" xlink:href="#at"/><use transform="matrix(0.05,0,0,0.05,140.7,0)" xlink:href="#ap"/><use transform="matrix(0.05,0,0,0.05,150.7,0)" xlink:href="#ag"/><use transform="matrix(0.05,0,0,0.05,154.64999999999998,0)" xlink:href="#au"/></g><path d="M115-194c55 1 70 41 70 98S169 2 115 4C84 4 66-9 55-30l1 105H24l-1-265h31l2 30c10-21 28-34 59-34zm-8 174c40 0 45-34 45-75s-6-73-45-74c-42 0-51 32-51 76 0 43 10 73 51 73" id="ax"/><path d="M135-143c-3-34-86-38-87 0 15 53 115 12 119 90S17 21 10-45l28-5c4 36 97 45 98 0-10-56-113-15-118-90-4-57 82-63 122-42 12 7 21 19 24 35" id="ay"/><path d="M127-220V0H93v-220H8v-28h204v28h-85" id="az"/><g id="f"><use transform="matrix(0.05,0,0,0.05,0,0)" xlink:href="#ax"/><use transform="matrix(0.05,0,0,0.05,10,0)" xlink:href="#ak"/><use transform="matrix(0.05,0,0,0.05,15.949999999999998,0)" xlink:href="#ap"/><use transform="matrix(0.05,0,0,0.05,25.950000000000003,0)" xlink:href="#ai"/><use transform="matrix(0.05,0,0,0.05,34.95,0)" xlink:href="#an"/><use transform="matrix(0.05,0,0,0.05,44.95,0)" xlink:href="#ay"/><use transform="matrix(0.05,0,0,0.05,53.95,0)" xlink:href="#aj"/><use transform="matrix(0.05,0,0,0.05,63.95,0)" xlink:href="#ak"/><use transform="matrix(0.05,0,0,0.05,69.9,0)" xlink:href="#az"/><use transform="matrix(0.05,0,0,0.05,80.2,0)" xlink:href="#am"/><use transform="matrix(0.05,0,0,0.05,90.2,0)" xlink:href="#ak"/><use transform="matrix(0.05,0,0,0.05,96.15,0)" xlink:href="#ah"/><use transform="matrix(0.05,0,0,0.05,106.15,0)" xlink:href="#ap"/><use transform="matrix(0.05,0,0,0.05,116.15,0)" xlink:href="#aq"/><use transform="matrix(0.05,0,0,0.05,122.10000000000001,0)" xlink:href="#ar"/><use transform="matrix(0.05,0,0,0.05,128.05,0)" xlink:href="#as"/><use transform="matrix(0.05,0,0,0.05,133.05,0)" xlink:href="#at"/><use transform="matrix(0.05,0,0,0.05,142.05,0)" xlink:href="#ap"/><use transform="matrix(0.05,0,0,0.05,152.05,0)" xlink:href="#ag"/><use transform="matrix(0.05,0,0,0.05,156,0)" xlink:href="#au"/></g><path d="M106-169C34-169 62-67 57 0H25v-261h32l-1 103c12-21 28-36 61-36 89 0 53 116 60 194h-32v-121c2-32-8-49-39-48" id="aA"/><g id="g"><use transform="matrix(0.05,0,0,0.05,0,0)" xlink:href="#aA"/><use transform="matrix(0.05,0,0,0.05,10,0)" xlink:href="#aj"/><use transform="matrix(0.05,0,0,0.05,20,0)" xlink:href="#ai"/><use transform="matrix(0.05,0,0,0.05,29,0)" xlink:href="#an"/><use transform="matrix(0.05,0,0,0.05,39,0)" xlink:href="#ak"/><use transform="matrix(0.05,0,0,0.05,44.95,0)" xlink:href="#al"/><use transform="matrix(0.05,0,0,0.05,53.95,0)" xlink:href="#am"/><use transform="matrix(0.05,0,0,0.05,63.95,0)" xlink:href="#ao"/><use transform="matrix(0.05,0,0,0.05,73.95,0)" xlink:href="#aj"/><use transform="matrix(0.05,0,0,0.05,83.95,0)" xlink:href="#au"/><use transform="matrix(0.05,0,0,0.05,93.95,0)" xlink:href="#aj"/><use transform="matrix(0.05,0,0,0.05,103.95,0)" xlink:href="#aq"/><use transform="matrix(0.05,0,0,0.05,109.9,0)" xlink:href="#ar"/><use transform="matrix(0.05,0,0,0.05,115.85000000000001,0)" xlink:href="#as"/><use transform="matrix(0.05,0,0,0.05,120.85000000000001,0)" xlink:href="#at"/><use transform="matrix(0.05,0,0,0.05,129.85000000000002,0)" xlink:href="#ap"/><use transform="matrix(0.05,0,0,0.05,139.85000000000002,0)" xlink:href="#ag"/><use transform="matrix(0.05,0,0,0.05,143.8,0)" xlink:href="#au"/></g><path d="M145-31C134-9 116 4 85 4 32 4 16-35 15-94c0-59 17-99 70-100 32-1 48 14 60 33 0-11-1-24 2-32h30l-1 268h-32zM93-21c41 0 51-33 51-76s-8-73-50-73c-40 0-46 35-46 75s5 74 45 74" id="aB"/><path d="M143 4C61 4 22-44 18-125c-5-107 100-154 193-111 17 8 29 25 37 43l-32 9c-13-25-37-40-76-40-61 0-88 39-88 99 0 61 29 100 91 101 35 0 62-11 79-27v-45h-74v-28h105v86C228-13 192 4 143 4" id="aC"/><g id="h"><use transform="matrix(0.05,0,0,0.05,0,0)" xlink:href="#ai"/><use transform="matrix(0.05,0,0,0.05,9,0)" xlink:href="#aA"/><use transform="matrix(0.05,0,0,0.05,19,0)" xlink:href="#an"/><use transform="matrix(0.05,0,0,0.05,29,0)" xlink:href="#aB"/><use transform="matrix(0.05,0,0,0.05,39,0)" xlink:href="#am"/><use transform="matrix(0.05,0,0,0.05,49,0)" xlink:href="#an"/><use transform="matrix(0.05,0,0,0.05,59,0)" xlink:href="#aj"/><use transform="matrix(0.05,0,0,0.05,69,0)" xlink:href="#ak"/><use transform="matrix(0.05,0,0,0.05,74.95,0)" xlink:href="#aC"/><use transform="matrix(0.05,0,0,0.05,88.95,0)" xlink:href="#aj"/><use transform="matrix(0.05,0,0,0.05,98.95,0)" xlink:href="#ah"/><use transform="matrix(0.05,0,0,0.05,108.95,0)" xlink:href="#aj"/><use transform="matrix(0.05,0,0,0.05,118.95,0)" xlink:href="#au"/><use transform="matrix(0.05,0,0,0.05,128.95,0)" xlink:href="#ap"/><use transform="matrix(0.05,0,0,0.05,138.95,0)" xlink:href="#ak"/><use transform="matrix(0.05,0,0,0.05,144.89999999999998,0)" xlink:href="#aq"/><use transform="matrix(0.05,0,0,0.05,150.84999999999997,0)" xlink:href="#ar"/><use transform="matrix(0.05,0,0,0.05,156.79999999999995,0)" xlink:href="#as"/><use transform="matrix(0.05,0,0,0.05,161.79999999999995,0)" xlink:href="#at"/><use transform="matrix(0.05,0,0,0.05,170.79999999999995,0)" xlink:href="#ap"/><use transform="matrix(0.05,0,0,0.05,180.79999999999995,0)" xlink:href="#ag"/><use transform="matrix(0.05,0,0,0.05,184.74999999999994,0)" xlink:href="#au"/></g><path d="M151-220L108 0H75l42-220H32l6-28h203l-5 28h-85" id="aD"/><path d="M68-162c25-46 127-43 121 31C183-60 169 1 98 4 69 5 53-11 43-31L36 0H5l52-261h31zm88 36c2-27-9-43-34-43-55 0-70 51-70 103 0 29 15 45 43 46 52 0 58-58 61-106" id="aE"/><g id="i"><use transform="matrix(0.05,0,0,0.05,0,0)" xlink:href="#aD"/><use transform="matrix(0.05,0,0,0.05,9.3,0)" xlink:href="#ac"/><use transform="matrix(0.05,0,0,0.05,19.3,0)" xlink:href="#aE"/><use transform="matrix(0.05,0,0,0.05,29.3,0)" xlink:href="#ab"/><use transform="matrix(0.05,0,0,0.05,33.25,0)" xlink:href="#T"/><use transform="matrix(0.05,0,0,0.05,43.25,0)" xlink:href="#aa"/><use transform="matrix(0.05,0,0,0.05,49.2,0)" xlink:href="#V"/></g><path d="M222 0l43-216c-8 16-17 34-26 49L143 0h-22L81-216 41 0H11l48-248h42l38 208 116-208h45L252 0h-30" id="aF"/><g id="j"><use transform="matrix(0.05,0,0,0.05,0,0)" xlink:href="#W"/><use transform="matrix(0.05,0,0,0.05,10.5,0)" xlink:href="#W"/><use transform="matrix(0.05,0,0,0.05,21,0)" xlink:href="#aF"/><use transform="matrix(0.05,0,0,0.05,35.95,0)" xlink:href="#V"/><use transform="matrix(0.05,0,0,0.05,45.95,0)" xlink:href="#ad"/><use transform="matrix(0.05,0,0,0.05,55.95,0)" xlink:href="#T"/><use transform="matrix(0.05,0,0,0.05,65.95,0)" xlink:href="#ab"/><use transform="matrix(0.05,0,0,0.05,69.9,0)" xlink:href="#V"/><use transform="matrix(0.05,0,0,0.05,79.9,0)" xlink:href="#ae"/><use transform="matrix(0.05,0,0,0.05,90.4,0)" xlink:href="#ae"/></g><path d="M63-220v92h138v28H63V0H30v-248h175v28H63" id="aG"/><g id="k"><use transform="matrix(0.05,0,0,0.05,0,0)" xlink:href="#ax"/><use transform="matrix(0.05,0,0,0.05,10,0)" xlink:href="#ap"/><use transform="matrix(0.05,0,0,0.05,20,0)" xlink:href="#ay"/><use transform="matrix(0.05,0,0,0.05,29,0)" xlink:href="#ag"/><use transform="matrix(0.05,0,0,0.05,32.95,0)" xlink:href="#ai"/><use transform="matrix(0.05,0,0,0.05,41.95,0)" xlink:href="#ag"/><use transform="matrix(0.05,0,0,0.05,45.900000000000006,0)" xlink:href="#ap"/><use transform="matrix(0.05,0,0,0.05,55.900000000000006,0)" xlink:href="#ah"/><use transform="matrix(0.05,0,0,0.05,65.9,0)" xlink:href="#aj"/><use transform="matrix(0.05,0,0,0.05,75.9,0)" xlink:href="#ak"/><use transform="matrix(0.05,0,0,0.05,81.85000000000001,0)" xlink:href="#aG"/><use transform="matrix(0.05,0,0,0.05,92.80000000000001,0)" xlink:href="#ag"/><use transform="matrix(0.05,0,0,0.05,96.75000000000001,0)" xlink:href="#ai"/><use transform="matrix(0.05,0,0,0.05,105.75,0)" xlink:href="#aA"/><use transform="matrix(0.05,0,0,0.05,115.75,0)" xlink:href="#aj"/><use transform="matrix(0.05,0,0,0.05,125.75,0)" xlink:href="#aq"/><use transform="matrix(0.05,0,0,0.05,131.70000000000002,0)" xlink:href="#ar"/><use transform="matrix(0.05,0,0,0.05,137.65,0)" xlink:href="#as"/><use transform="matrix(0.05,0,0,0.05,142.65,0)" xlink:href="#at"/><use transform="matrix(0.05,0,0,0.05,151.65,0)" xlink:href="#ap"/><use transform="matrix(0.05,0,0,0.05,161.65,0)" xlink:href="#ag"/><use transform="matrix(0.05,0,0,0.05,165.6,0)" xlink:href="#au"/></g><path d="M101-234c-31-9-42 10-38 44h38v23H63V0H32v-167H5v-23h27c-7-52 17-82 69-68v24" id="aH"/><path d="M30 0v-248h187v28H63v79h144v27H63v87h162V0H30" id="aI"/><g id="l"><use transform="matrix(0.05,0,0,0.05,0,0)" xlink:href="#aw"/><use transform="matrix(0.05,0,0,0.05,14.950000000000001,0)" xlink:href="#ap"/><use transform="matrix(0.05,0,0,0.05,24.950000000000003,0)" xlink:href="#au"/><use transform="matrix(0.05,0,0,0.05,34.95,0)" xlink:href="#ag"/><use transform="matrix(0.05,0,0,0.05,38.900000000000006,0)" xlink:href="#aH"/><use transform="matrix(0.05,0,0,0.05,43.900000000000006,0)" xlink:href="#ag"/><use transform="matrix(0.05,0,0,0.05,47.85000000000001,0)" xlink:href="#ai"/><use transform="matrix(0.05,0,0,0.05,56.85,0)" xlink:href="#aj"/><use transform="matrix(0.05,0,0,0.05,66.85000000000001,0)" xlink:href="#ak"/><use transform="matrix(0.05,0,0,0.05,72.80000000000001,0)" xlink:href="#aI"/><use transform="matrix(0.05,0,0,0.05,84.80000000000001,0)" xlink:href="#ay"/><use transform="matrix(0.05,0,0,0.05,93.80000000000001,0)" xlink:href="#av"/><use transform="matrix(0.05,0,0,0.05,98.80000000000001,0)" xlink:href="#aj"/><use transform="matrix(0.05,0,0,0.05,108.80000000000001,0)" xlink:href="#au"/><use transform="matrix(0.05,0,0,0.05,118.80000000000001,0)" xlink:href="#ap"/><use transform="matrix(0.05,0,0,0.05,128.8,0)" xlink:href="#aq"/><use transform="matrix(0.05,0,0,0.05,134.75,0)" xlink:href="#ar"/><use transform="matrix(0.05,0,0,0.05,140.7,0)" xlink:href="#as"/><use transform="matrix(0.05,0,0,0.05,145.7,0)" xlink:href="#at"/><use transform="matrix(0.05,0,0,0.05,154.7,0)" xlink:href="#ap"/><use transform="matrix(0.05,0,0,0.05,164.7,0)" xlink:href="#ag"/><use transform="matrix(0.05,0,0,0.05,168.64999999999998,0)" xlink:href="#au"/></g><path d="M52-101C46-14 166-7 216-51l9-45h-74l6-28h105l-18 87C217-12 181 4 130 4 60 4 18-31 18-101c0-106 78-167 188-146 30 6 48 27 59 54l-34 9c-10-26-31-41-67-40-75 1-107 50-112 123" id="aJ"/><path d="M76-167L44 0H12l33-167H18l4-23h27c3-47 25-81 82-69l-4 24c-35-8-44 15-46 45h37l-5 23H76" id="aK"/><path d="M50-231l6-30h32l-6 30H50zM6 0l37-190h31L37 0H6" id="aL"/><path d="M44-68c0 29 11 47 38 47 30 0 42-19 51-41l28 9C148-21 126 4 82 4 31 4 10-29 12-85c3-77 74-140 146-93 12 8 15 23 18 40l-31 5c-1-22-13-36-36-36-52 0-65 49-65 101" id="aM"/><g id="m"><use transform="matrix(0.05,0,0,0.05,0,0)" xlink:href="#aD"/><use transform="matrix(0.05,0,0,0.05,9.3,0)" xlink:href="#ac"/><use transform="matrix(0.05,0,0,0.05,19.3,0)" xlink:href="#aE"/><use transform="matrix(0.05,0,0,0.05,29.3,0)" xlink:href="#ab"/><use transform="matrix(0.05,0,0,0.05,33.25,0)" xlink:href="#T"/><use transform="matrix(0.05,0,0,0.05,43.25,0)" xlink:href="#aa"/><use transform="matrix(0.05,0,0,0.05,49.2,0)" xlink:href="#V"/><use transform="matrix(0.05,0,0,0.05,59.2,0)" xlink:href="#aJ"/><use transform="matrix(0.05,0,0,0.05,73.2,0)" xlink:href="#aa"/><use transform="matrix(0.05,0,0,0.05,79.15,0)" xlink:href="#ac"/><use transform="matrix(0.05,0,0,0.05,89.15,0)" xlink:href="#aK"/><use transform="matrix(0.05,0,0,0.05,94.15,0)" xlink:href="#aL"/><use transform="matrix(0.05,0,0,0.05,98.10000000000001,0)" xlink:href="#aM"/><use transform="matrix(0.05,0,0,0.05,107.10000000000001,0)" xlink:href="#V"/></g><path d="M119 0H84L31-248h34l41 218 126-218h36" id="aN"/><path d="M55-144c13 50 104 24 104 88C159 21 15 23 1-39l26-10c6 40 102 42 102-4-13-50-104-23-104-87 0-71 143-71 148-8l-29 4c-5-35-85-37-89 0" id="aO"/><g id="n"><use transform="matrix(0.05,0,0,0.05,0,0)" xlink:href="#W"/><use transform="matrix(0.05,0,0,0.05,10.5,0)" xlink:href="#W"/><use transform="matrix(0.05,0,0,0.05,21,0)" xlink:href="#aN"/><use transform="matrix(0.05,0,0,0.05,32.65,0)" xlink:href="#aL"/><use transform="matrix(0.05,0,0,0.05,36.6,0)" xlink:href="#aO"/><use transform="matrix(0.05,0,0,0.05,45.6,0)" xlink:href="#Z"/><use transform="matrix(0.05,0,0,0.05,50.6,0)" xlink:href="#ac"/><use transform="matrix(0.05,0,0,0.05,60.6,0)" xlink:href="#ae"/><use transform="matrix(0.05,0,0,0.05,71.1,0)" xlink:href="#ae"/></g><g id="o"><use transform="matrix(0.05,0,0,0.05,0,0)" xlink:href="#ax"/><use transform="matrix(0.05,0,0,0.05,10,0)" xlink:href="#ag"/><use transform="matrix(0.05,0,0,0.05,13.949999999999998,0)" xlink:href="#ah"/><use transform="matrix(0.05,0,0,0.05,23.95,0)" xlink:href="#av"/><use transform="matrix(0.05,0,0,0.05,28.950000000000003,0)" xlink:href="#aj"/><use transform="matrix(0.05,0,0,0.05,38.95,0)" xlink:href="#ak"/><use transform="matrix(0.05,0,0,0.05,44.900000000000006,0)" xlink:href="#al"/><use transform="matrix(0.05,0,0,0.05,53.900000000000006,0)" xlink:href="#am"/><use transform="matrix(0.05,0,0,0.05,63.900000000000006,0)" xlink:href="#ao"/><use transform="matrix(0.05,0,0,0.05,73.9,0)" xlink:href="#aj"/><use transform="matrix(0.05,0,0,0.05,83.9,0)" xlink:href="#au"/><use transform="matrix(0.05,0,0,0.05,93.9,0)" xlink:href="#aj"/><use transform="matrix(0.05,0,0,0.05,103.9,0)" xlink:href="#aq"/><use transform="matrix(0.05,0,0,0.05,109.85000000000001,0)" xlink:href="#ar"/><use transform="matrix(0.05,0,0,0.05,115.80000000000001,0)" xlink:href="#as"/><use transform="matrix(0.05,0,0,0.05,120.80000000000001,0)" xlink:href="#at"/><use transform="matrix(0.05,0,0,0.05,129.8,0)" xlink:href="#ap"/><use transform="matrix(0.05,0,0,0.05,139.8,0)" xlink:href="#ag"/><use transform="matrix(0.05,0,0,0.05,143.75,0)" xlink:href="#au"/></g><path d="M18-100v-36l175-74v27L42-118l151 64v27" id="aP"/><path d="M18-27v-27l151-64-151-65v-27l175 74v36" id="aQ"/><g id="p"><use transform="matrix(0.05,0,0,0.05,0,0)" xlink:href="#aP"/><use transform="matrix(0.05,0,0,0.05,10.5,0)" xlink:href="#aP"/><use transform="matrix(0.05,0,0,0.05,21,0)" xlink:href="#am"/><use transform="matrix(0.05,0,0,0.05,31,0)" xlink:href="#ay"/><use transform="matrix(0.05,0,0,0.05,40,0)" xlink:href="#an"/><use transform="matrix(0.05,0,0,0.05,50,0)" xlink:href="#aQ"/><use transform="matrix(0.05,0,0,0.05,60.5,0)" xlink:href="#aQ"/></g><path d="M15-91v-56l181-69v40L49-119l147 57v40" id="aR"/><path d="M24 0v-248h52V0H24" id="aS"/><path d="M135-194c87-1 58 113 63 194h-50c-7-57 23-157-34-157-59 0-34 97-39 157H25l-1-190h47c2 12-1 28 3 38 12-26 28-41 61-42" id="aT"/><path d="M115-3C79 11 28 4 28-45v-112H4v-33h27l15-45h31v45h36v33H77v99c-1 23 16 31 38 25v30" id="aU"/><path d="M185-48c-13 30-37 53-82 52C43 2 14-33 14-96s30-98 90-98c62 0 83 45 84 108H66c0 31 8 55 39 56 18 0 30-7 34-22zm-45-69c5-46-57-63-70-21-2 6-4 13-4 21h74" id="aV"/><path d="M135-150c-39-12-60 13-60 57V0H25l-1-190h47c2 13-1 29 3 40 6-28 27-53 61-41v41" id="aW"/><path d="M121-226c-27-7-43 5-38 36h38v33H83V0H34v-157H6v-33h28c-9-59 32-81 87-68v32" id="aX"/><path d="M133-34C117-15 103 5 69 4 32 3 11-16 11-54c-1-60 55-63 116-61 1-26-3-47-28-47-18 1-26 9-28 27l-52-2c7-38 36-58 82-57s74 22 75 68l1 82c-1 14 12 18 25 15v27c-30 8-71 5-69-32zm-48 3c29 0 43-24 42-57-32 0-66-3-65 30 0 17 8 27 23 27" id="aY"/><path d="M12 0v-35l95-120H19v-35h142v35L67-36h103V0H12" id="aZ"/><path d="M15-22v-40l146-57-146-57v-40l181 69v56" id="ba"/><g id="q"><use transform="matrix(0.05,0,0,0.05,0,0)" xlink:href="#aR"/><use transform="matrix(0.05,0,0,0.05,10.5,0)" xlink:href="#aR"/><use transform="matrix(0.05,0,0,0.05,21,0)" xlink:href="#aS"/><use transform="matrix(0.05,0,0,0.05,26,0)" xlink:href="#aT"/><use transform="matrix(0.05,0,0,0.05,36.95,0)" xlink:href="#aU"/><use transform="matrix(0.05,0,0,0.05,42.900000000000006,0)" xlink:href="#aV"/><use transform="matrix(0.05,0,0,0.05,52.900000000000006,0)" xlink:href="#aW"/><use transform="matrix(0.05,0,0,0.05,59.900000000000006,0)" xlink:href="#aX"/><use transform="matrix(0.05,0,0,0.05,65.85000000000001,0)" xlink:href="#aY"/><use transform="matrix(0.05,0,0,0.05,75.85000000000001,0)" xlink:href="#aZ"/><use transform="matrix(0.05,0,0,0.05,84.85000000000001,0)" xlink:href="#ba"/><use transform="matrix(0.05,0,0,0.05,95.35000000000001,0)" xlink:href="#ba"/></g><path d="M140-251c80 0 125 45 125 126S219 4 139 4C58 4 15-44 15-125s44-126 125-126zm-1 214c52 0 73-35 73-88 0-50-21-86-72-86-52 0-73 35-73 86s22 88 72 88" id="bb"/><path d="M135-194c52 0 70 43 70 98 0 56-19 99-73 100-30 1-46-15-58-35L72 0H24l1-261h50v104c11-23 29-37 60-37zM114-30c31 0 40-27 40-66 0-37-7-63-39-63s-41 28-41 65c0 36 8 64 40 64" id="bc"/><path d="M137-138c1-29-70-34-71-4 15 46 118 7 119 86 1 83-164 76-172 9l43-7c4 19 20 25 44 25 33 8 57-30 24-41C81-84 22-81 20-136c-2-80 154-74 161-7" id="bd"/><path d="M128 0H69L1-190h53L99-40l48-150h52" id="be"/><path d="M88-194c31-1 46 15 58 34l-1-101h50l1 261h-48c-2-10 0-23-3-31C134-8 116 4 84 4 32 4 16-41 15-95c0-56 19-97 73-99zm17 164c33 0 40-30 41-66 1-37-9-64-41-64s-38 30-39 65c0 43 13 65 39 65" id="bf"/><path d="M110-194c64 0 96 36 96 99 0 64-35 99-97 99-61 0-95-36-95-99 0-62 34-99 96-99zm-1 164c35 0 45-28 45-65 0-40-10-65-43-65-34 0-45 26-45 65 0 36 10 65 43 65" id="bg"/><g id="r"><use transform="matrix(0.05,0,0,0.05,0,0)" xlink:href="#bb"/><use transform="matrix(0.05,0,0,0.05,14,0)" xlink:href="#bc"/><use transform="matrix(0.05,0,0,0.05,24.950000000000003,0)" xlink:href="#bd"/><use transform="matrix(0.05,0,0,0.05,34.95,0)" xlink:href="#aV"/><use transform="matrix(0.05,0,0,0.05,44.95,0)" xlink:href="#aW"/><use transform="matrix(0.05,0,0,0.05,51.95,0)" xlink:href="#be"/><use transform="matrix(0.05,0,0,0.05,61.95,0)" xlink:href="#aY"/><use transform="matrix(0.05,0,0,0.05,71.95,0)" xlink:href="#bf"/><use transform="matrix(0.05,0,0,0.05,82.9,0)" xlink:href="#bg"/><use transform="matrix(0.05,0,0,0.05,93.85000000000001,0)" xlink:href="#aW"/></g><path d="M24 0v-261h32V0H24" id="bh"/><path d="M9 0v-24l116-142H16v-24h144v24L44-24h123V0H9" id="bi"/><path d="M185-189c-5-48-123-54-124 2 14 75 158 14 163 119 3 78-121 87-175 55-17-10-28-26-33-46l33-7c5 56 141 63 141-1 0-78-155-14-162-118-5-82 145-84 179-34 5 7 8 16 11 25" id="bj"/><path d="M24-231v-30h32v30H24zM-9 49c24 4 33-6 33-30v-209h32V24c2 40-23 58-65 49V49" id="bk"/><g id="s"><use transform="matrix(0.05,0,0,0.05,0,0)" xlink:href="#aj"/><use transform="matrix(0.05,0,0,0.05,10,0)" xlink:href="#ai"/><use transform="matrix(0.05,0,0,0.05,19,0)" xlink:href="#av"/><use transform="matrix(0.05,0,0,0.05,24,0)" xlink:href="#am"/><use transform="matrix(0.05,0,0,0.05,34,0)" xlink:href="#aj"/><use transform="matrix(0.05,0,0,0.05,44,0)" xlink:href="#bh"/><use transform="matrix(0.05,0,0,0.05,47.95,0)" xlink:href="#ag"/><use transform="matrix(0.05,0,0,0.05,51.900000000000006,0)" xlink:href="#bi"/><use transform="matrix(0.05,0,0,0.05,60.900000000000006,0)" xlink:href="#aj"/><use transform="matrix(0.05,0,0,0.05,70.9,0)" xlink:href="#ak"/><use transform="matrix(0.05,0,0,0.05,76.85000000000001,0)" xlink:href="#aq"/><use transform="matrix(0.05,0,0,0.05,82.80000000000001,0)" xlink:href="#bj"/><use transform="matrix(0.05,0,0,0.05,94.80000000000001,0)" xlink:href="#am"/><use transform="matrix(0.05,0,0,0.05,104.80000000000001,0)" xlink:href="#bk"/><use transform="matrix(0.05,0,0,0.05,108.75,0)" xlink:href="#an"/><use transform="matrix(0.05,0,0,0.05,118.75,0)" xlink:href="#av"/><use transform="matrix(0.05,0,0,0.05,123.75,0)" xlink:href="#ap"/></g><g id="t"><use transform="matrix(0.05,0,0,0.05,0,0)" xlink:href="#ay"/><use transform="matrix(0.05,0,0,0.05,9,0)" xlink:href="#am"/><use transform="matrix(0.05,0,0,0.05,19,0)" xlink:href="#bk"/><use transform="matrix(0.05,0,0,0.05,22.95,0)" xlink:href="#ar"/><use transform="matrix(0.05,0,0,0.05,28.899999999999995,0)" xlink:href="#as"/><use transform="matrix(0.05,0,0,0.05,33.9,0)" xlink:href="#at"/><use transform="matrix(0.05,0,0,0.05,42.9,0)" xlink:href="#ap"/><use transform="matrix(0.05,0,0,0.05,52.900000000000006,0)" xlink:href="#ag"/><use transform="matrix(0.05,0,0,0.05,56.85,0)" xlink:href="#au"/></g><path d="M-5 72V49h209v23H-5" id="bl"/><path d="M115-194c53 0 69 39 70 98 0 66-23 100-70 100C84 3 66-7 56-30L54 0H23l1-261h32v101c10-23 28-34 59-34zm-8 174c40 0 45-34 45-75 0-40-5-75-45-74-42 0-51 32-51 76 0 43 10 73 51 73" id="bm"/><g id="u"><use transform="matrix(0.05,0,0,0.05,0,0)" xlink:href="#bl"/><use transform="matrix(0.05,0,0,0.05,10,0)" xlink:href="#ap"/><use transform="matrix(0.05,0,0,0.05,20,0)" xlink:href="#bm"/><use transform="matrix(0.05,0,0,0.05,30,0)" xlink:href="#ay"/><use transform="matrix(0.05,0,0,0.05,39,0)" xlink:href="#an"/><use transform="matrix(0.05,0,0,0.05,49,0)" xlink:href="#ak"/><use transform="matrix(0.05,0,0,0.05,54.95,0)" xlink:href="#at"/><use transform="matrix(0.05,0,0,0.05,63.95,0)" xlink:href="#aj"/><use transform="matrix(0.05,0,0,0.05,73.95,0)" xlink:href="#au"/><use transform="matrix(0.05,0,0,0.05,83.95,0)" xlink:href="#ap"/><use transform="matrix(0.05,0,0,0.05,93.95,0)" xlink:href="#ak"/><use transform="matrix(0.05,0,0,0.05,99.9,0)" xlink:href="#an"/><use transform="matrix(0.05,0,0,0.05,109.9,0)" xlink:href="#ay"/></g><path d="M24 0v-248h195v40H76v63h132v40H76v65h150V0H24" id="bn"/><path d="M195-6C206 82 75 100 31 46c-4-6-6-13-8-21l49-6c3 16 16 24 34 25 40 0 42-37 40-79-11 22-30 35-61 35-53 0-70-43-70-97 0-56 18-96 73-97 30 0 46 14 59 34l2-30h47zm-90-29c32 0 41-27 41-63 0-35-9-62-40-62-32 0-39 29-40 63 0 36 9 62 39 62" id="bo"/><path d="M25-224v-37h50v37H25zM25 0v-190h50V0H25" id="bp"/><g id="v"><use transform="matrix(0.05,0,0,0.05,0,0)" xlink:href="#bn"/><use transform="matrix(0.05,0,0,0.05,12,0)" xlink:href="#bd"/><use transform="matrix(0.05,0,0,0.05,22,0)" xlink:href="#aU"/><use transform="matrix(0.05,0,0,0.05,27.950000000000003,0)" xlink:href="#aW"/><use transform="matrix(0.05,0,0,0.05,34.95,0)" xlink:href="#aY"/><use transform="matrix(0.05,0,0,0.05,44.95,0)" xlink:href="#aU"/><use transform="matrix(0.05,0,0,0.05,50.900000000000006,0)" xlink:href="#aV"/><use transform="matrix(0.05,0,0,0.05,60.900000000000006,0)" xlink:href="#bo"/><use transform="matrix(0.05,0,0,0.05,71.85000000000001,0)" xlink:href="#bp"/><use transform="matrix(0.05,0,0,0.05,76.85000000000001,0)" xlink:href="#aY"/></g><g id="w"><use transform="matrix(0.05,0,0,0.05,0,0)" xlink:href="#ax"/><use transform="matrix(0.05,0,0,0.05,10,0)" xlink:href="#ap"/><use transform="matrix(0.05,0,0,0.05,20,0)" xlink:href="#ay"/><use transform="matrix(0.05,0,0,0.05,29,0)" xlink:href="#ag"/><use transform="matrix(0.05,0,0,0.05,32.95,0)" xlink:href="#ai"/><use transform="matrix(0.05,0,0,0.05,41.95,0)" xlink:href="#ag"/><use transform="matrix(0.05,0,0,0.05,45.900000000000006,0)" xlink:href="#ap"/><use transform="matrix(0.05,0,0,0.05,55.900000000000006,0)" xlink:href="#ah"/><use transform="matrix(0.05,0,0,0.05,65.9,0)" xlink:href="#aj"/><use transform="matrix(0.05,0,0,0.05,75.9,0)" xlink:href="#ak"/><use transform="matrix(0.05,0,0,0.05,81.85000000000001,0)" xlink:href="#aG"/><use transform="matrix(0.05,0,0,0.05,92.80000000000001,0)" xlink:href="#ag"/><use transform="matrix(0.05,0,0,0.05,96.75000000000001,0)" xlink:href="#ai"/><use transform="matrix(0.05,0,0,0.05,105.75,0)" xlink:href="#aA"/><use transform="matrix(0.05,0,0,0.05,115.75,0)" xlink:href="#aj"/><use transform="matrix(0.05,0,0,0.05,125.75,0)" xlink:href="#aq"/><use transform="matrix(0.05,0,0,0.05,131.70000000000002,0)" xlink:href="#ar"/><use transform="matrix(0.05,0,0,0.05,137.65,0)" xlink:href="#as"/><use transform="matrix(0.05,0,0,0.05,142.65,0)" xlink:href="#at"/><use transform="matrix(0.05,0,0,0.05,151.65,0)" xlink:href="#ap"/><use transform="matrix(0.05,0,0,0.05,161.65,0)" xlink:href="#ag"/><use transform="matrix(0.05,0,0,0.05,165.6,0)" xlink:href="#au"/></g><g id="x"><use transform="matrix(0.05,0,0,0.05,0,0)" xlink:href="#bn"/><use transform="matrix(0.05,0,0,0.05,12,0)" xlink:href="#bd"/><use transform="matrix(0.05,0,0,0.05,22,0)" xlink:href="#aU"/><use transform="matrix(0.05,0,0,0.05,27.950000000000003,0)" xlink:href="#aY"/><use transform="matrix(0.05,0,0,0.05,37.95,0)" xlink:href="#bf"/><use transform="matrix(0.05,0,0,0.05,48.900000000000006,0)" xlink:href="#bg"/></g><g id="y"><use transform="matrix(0.05,0,0,0.05,0,0)" xlink:href="#aR"/><use transform="matrix(0.05,0,0,0.05,10.5,0)" xlink:href="#aR"/><use transform="matrix(0.05,0,0,0.05,21,0)" xlink:href="#aS"/><use transform="matrix(0.05,0,0,0.05,26,0)" xlink:href="#aT"/><use transform="matrix(0.05,0,0,0.05,36.95,0)" xlink:href="#aU"/><use transform="matrix(0.05,0,0,0.05,42.900000000000006,0)" xlink:href="#aV"/><use transform="matrix(0.05,0,0,0.05,52.900000000000006,0)" xlink:href="#aW"/><use transform="matrix(0.05,0,0,0.05,59.900000000000006,0)" xlink:href="#aX"/><use transform="matrix(0.05,0,0,0.05,65.85000000000001,0)" xlink:href="#aY"/><use transform="matrix(0.05,0,0,0.05,75.85000000000001,0)" xlink:href="#aZ"/><use transform="matrix(0.05,0,0,0.05,84.85000000000001,0)" xlink:href="#ba"/><use transform="matrix(0.05,0,0,0.05,95.35000000000001,0)" xlink:href="#ba"/></g><path d="M195 0l-88-114-31 24V0H24v-248h52v113l112-113h60L142-143 257 0h-62" id="bq"/><path d="M123 10C108 53 80 86 19 72V37c35 8 53-11 59-39L3-190h52l48 148c12-52 28-100 44-148h51" id="br"/><path d="M24 0v-248h52v208h133V0H24" id="bs"/><g id="z"><use transform="matrix(0.05,0,0,0.05,0,0)" xlink:href="#bq"/><use transform="matrix(0.05,0,0,0.05,12.950000000000001,0)" xlink:href="#aV"/><use transform="matrix(0.05,0,0,0.05,22.950000000000003,0)" xlink:href="#br"/><use transform="matrix(0.05,0,0,0.05,32.95,0)" xlink:href="#bs"/><use transform="matrix(0.05,0,0,0.05,43.900000000000006,0)" xlink:href="#bp"/><use transform="matrix(0.05,0,0,0.05,48.900000000000006,0)" xlink:href="#bd"/><use transform="matrix(0.05,0,0,0.05,58.900000000000006,0)" xlink:href="#aU"/><use transform="matrix(0.05,0,0,0.05,64.85000000000001,0)" xlink:href="#aV"/><use transform="matrix(0.05,0,0,0.05,74.85000000000001,0)" xlink:href="#aT"/><use transform="matrix(0.05,0,0,0.05,85.80000000000001,0)" xlink:href="#aV"/><use transform="matrix(0.05,0,0,0.05,95.80000000000001,0)" xlink:href="#aW"/></g><use transform="matrix(0.05,0,0,0.05,0,0)" xlink:href="#af" id="A"/><path d="M143 0L79-87 56-68V0H24v-261h32v163l83-92h37l-77 82L181 0h-38" id="bt"/><path d="M179-190L93 31C79 59 56 82 12 73V49c39 6 53-20 64-50L1-190h34L92-34l54-156h33" id="bu"/><path d="M194 0L95-120 63-95V0H30v-248h33v124l119-124h40L117-140 236 0h-42" id="bv"/><g id="B"><use transform="matrix(0.05,0,0,0.05,0,0)" xlink:href="#bt"/><use transform="matrix(0.05,0,0,0.05,9,0)" xlink:href="#an"/><use transform="matrix(0.05,0,0,0.05,19,0)" xlink:href="#bu"/><use transform="matrix(0.05,0,0,0.05,28,0)" xlink:href="#az"/><use transform="matrix(0.05,0,0,0.05,37.95,0)" xlink:href="#bu"/><use transform="matrix(0.05,0,0,0.05,46.95,0)" xlink:href="#ax"/><use transform="matrix(0.05,0,0,0.05,56.95,0)" xlink:href="#an"/><use transform="matrix(0.05,0,0,0.05,66.95,0)" xlink:href="#au"/><use transform="matrix(0.05,0,0,0.05,76.95,0)" xlink:href="#aq"/><use transform="matrix(0.05,0,0,0.05,82.9,0)" xlink:href="#bv"/><use transform="matrix(0.05,0,0,0.05,94.9,0)" xlink:href="#an"/><use transform="matrix(0.05,0,0,0.05,104.9,0)" xlink:href="#bu"/><use transform="matrix(0.05,0,0,0.05,113.9,0)" xlink:href="#aI"/><use transform="matrix(0.05,0,0,0.05,125.9,0)" xlink:href="#at"/><use transform="matrix(0.05,0,0,0.05,134.9,0)" xlink:href="#an"/><use transform="matrix(0.05,0,0,0.05,144.9,0)" xlink:href="#ah"/><use transform="matrix(0.05,0,0,0.05,154.9,0)" xlink:href="#av"/></g><g id="C"><use transform="matrix(0.05,0,0,0.05,0,0)" xlink:href="#an"/><use transform="matrix(0.05,0,0,0.05,10,0)" xlink:href="#ar"/><use transform="matrix(0.05,0,0,0.05,15.949999999999998,0)" xlink:href="#as"/><use transform="matrix(0.05,0,0,0.05,20.95,0)" xlink:href="#at"/><use transform="matrix(0.05,0,0,0.05,29.950000000000003,0)" xlink:href="#ap"/><use transform="matrix(0.05,0,0,0.05,39.95,0)" xlink:href="#ag"/><use transform="matrix(0.05,0,0,0.05,43.900000000000006,0)" xlink:href="#au"/></g><path d="M30-248c87 1 191-15 191 75 0 78-77 80-158 76V0H30v-248zm33 125c57 0 124 11 124-50 0-59-68-47-124-48v98" id="bw"/><g id="D"><use transform="matrix(0.05,0,0,0.05,0,0)" xlink:href="#bt"/><use transform="matrix(0.05,0,0,0.05,9,0)" xlink:href="#an"/><use transform="matrix(0.05,0,0,0.05,19,0)" xlink:href="#bu"/><use transform="matrix(0.05,0,0,0.05,28,0)" xlink:href="#bw"/><use transform="matrix(0.05,0,0,0.05,40,0)" xlink:href="#ak"/><use transform="matrix(0.05,0,0,0.05,45.95,0)" xlink:href="#an"/><use transform="matrix(0.05,0,0,0.05,55.95,0)" xlink:href="#ay"/><use transform="matrix(0.05,0,0,0.05,64.95,0)" xlink:href="#ay"/><use transform="matrix(0.05,0,0,0.05,73.95,0)" xlink:href="#an"/><use transform="matrix(0.05,0,0,0.05,83.95,0)" xlink:href="#au"/><use transform="matrix(0.05,0,0,0.05,93.95,0)" xlink:href="#aq"/><use transform="matrix(0.05,0,0,0.05,99.9,0)" xlink:href="#bv"/><use transform="matrix(0.05,0,0,0.05,111.9,0)" xlink:href="#an"/><use transform="matrix(0.05,0,0,0.05,121.9,0)" xlink:href="#bu"/><use transform="matrix(0.05,0,0,0.05,130.9,0)" xlink:href="#aI"/><use transform="matrix(0.05,0,0,0.05,142.9,0)" xlink:href="#at"/><use transform="matrix(0.05,0,0,0.05,151.9,0)" xlink:href="#an"/><use transform="matrix(0.05,0,0,0.05,161.9,0)" xlink:href="#ah"/><use transform="matrix(0.05,0,0,0.05,171.9,0)" xlink:href="#av"/></g><path d="M233-177c-1 41-23 64-60 70L243 0h-38l-65-103H63V0H30v-248c88 3 205-21 203 71zM63-129c60-2 137 13 137-47 0-61-80-42-137-45v92" id="bx"/><g id="E"><use transform="matrix(0.05,0,0,0.05,0,0)" xlink:href="#bt"/><use transform="matrix(0.05,0,0,0.05,9,0)" xlink:href="#an"/><use transform="matrix(0.05,0,0,0.05,19,0)" xlink:href="#bu"/><use transform="matrix(0.05,0,0,0.05,28,0)" xlink:href="#bx"/><use transform="matrix(0.05,0,0,0.05,40.95,0)" xlink:href="#an"/><use transform="matrix(0.05,0,0,0.05,50.95,0)" xlink:href="#bh"/><use transform="matrix(0.05,0,0,0.05,54.900000000000006,0)" xlink:href="#an"/><use transform="matrix(0.05,0,0,0.05,64.9,0)" xlink:href="#aj"/><use transform="matrix(0.05,0,0,0.05,74.9,0)" xlink:href="#ay"/><use transform="matrix(0.05,0,0,0.05,83.9,0)" xlink:href="#an"/><use transform="matrix(0.05,0,0,0.05,93.9,0)" xlink:href="#au"/><use transform="matrix(0.05,0,0,0.05,103.9,0)" xlink:href="#aq"/><use transform="matrix(0.05,0,0,0.05,109.85000000000001,0)" xlink:href="#bv"/><use transform="matrix(0.05,0,0,0.05,121.85000000000001,0)" xlink:href="#an"/><use transform="matrix(0.05,0,0,0.05,131.85000000000002,0)" xlink:href="#bu"/><use transform="matrix(0.05,0,0,0.05,140.85000000000002,0)" xlink:href="#aI"/><use transform="matrix(0.05,0,0,0.05,152.85000000000002,0)" xlink:href="#at"/><use transform="matrix(0.05,0,0,0.05,161.85000000000002,0)" xlink:href="#an"/><use transform="matrix(0.05,0,0,0.05,171.85000000000002,0)" xlink:href="#ah"/><use transform="matrix(0.05,0,0,0.05,181.85000000000002,0)" xlink:href="#av"/></g><g id="F"><use transform="matrix(0.05,0,0,0.05,0,0)" xlink:href="#an"/><use transform="matrix(0.05,0,0,0.05,10,0)" xlink:href="#ar"/><use transform="matrix(0.05,0,0,0.05,15.949999999999998,0)" xlink:href="#as"/><use transform="matrix(0.05,0,0,0.05,20.95,0)" xlink:href="#at"/><use transform="matrix(0.05,0,0,0.05,29.950000000000003,0)" xlink:href="#ap"/><use transform="matrix(0.05,0,0,0.05,39.95,0)" xlink:href="#ag"/><use transform="matrix(0.05,0,0,0.05,43.900000000000006,0)" xlink:href="#au"/></g><g id="G"><use transform="matrix(0.05,0,0,0.05,0,0)" xlink:href="#al"/><use transform="matrix(0.05,0,0,0.05,9,0)" xlink:href="#bw"/><use transform="matrix(0.05,0,0,0.05,21,0)" xlink:href="#aj"/><use transform="matrix(0.05,0,0,0.05,31,0)" xlink:href="#ah"/><use transform="matrix(0.05,0,0,0.05,41,0)" xlink:href="#an"/><use transform="matrix(0.05,0,0,0.05,51,0)" xlink:href="#bh"/></g><g id="H"><use transform="matrix(0.05,0,0,0.05,0,0)" xlink:href="#ax"/><use transform="matrix(0.05,0,0,0.05,10,0)" xlink:href="#aj"/><use transform="matrix(0.05,0,0,0.05,20,0)" xlink:href="#ag"/><use transform="matrix(0.05,0,0,0.05,23.95,0)" xlink:href="#ah"/><use transform="matrix(0.05,0,0,0.05,33.95,0)" xlink:href="#av"/><use transform="matrix(0.05,0,0,0.05,38.95,0)" xlink:href="#aq"/><use transform="matrix(0.05,0,0,0.05,44.900000000000006,0)" xlink:href="#aC"/><use transform="matrix(0.05,0,0,0.05,58.900000000000006,0)" xlink:href="#ak"/><use transform="matrix(0.05,0,0,0.05,64.85000000000001,0)" xlink:href="#aj"/><use transform="matrix(0.05,0,0,0.05,74.85000000000001,0)" xlink:href="#ax"/><use transform="matrix(0.05,0,0,0.05,84.85000000000001,0)" xlink:href="#aA"/><use transform="matrix(0.05,0,0,0.05,94.85000000000001,0)" xlink:href="#ag"/><use transform="matrix(0.05,0,0,0.05,98.80000000000001,0)" xlink:href="#ai"/><use transform="matrix(0.05,0,0,0.05,107.80000000000001,0)" xlink:href="#ay"/></g><g id="I"><use transform="matrix(0.05,0,0,0.05,0,0)" xlink:href="#ao"/><use transform="matrix(0.05,0,0,0.05,10,0)" xlink:href="#ar"/><use transform="matrix(0.05,0,0,0.05,15.949999999999998,0)" xlink:href="#as"/><use transform="matrix(0.05,0,0,0.05,20.95,0)" xlink:href="#at"/><use transform="matrix(0.05,0,0,0.05,29.950000000000003,0)" xlink:href="#ap"/><use transform="matrix(0.05,0,0,0.05,39.95,0)" xlink:href="#ag"/><use transform="matrix(0.05,0,0,0.05,43.900000000000006,0)" xlink:href="#au"/></g><g id="J"><use transform="matrix(0.05,0,0,0.05,0,0)" xlink:href="#bl"/><use transform="matrix(0.05,0,0,0.05,10,0)" xlink:href="#an"/><use transform="matrix(0.05,0,0,0.05,20,0)" xlink:href="#ay"/><use transform="matrix(0.05,0,0,0.05,29,0)" xlink:href="#av"/><use transform="matrix(0.05,0,0,0.05,34,0)" xlink:href="#aj"/><use transform="matrix(0.05,0,0,0.05,44,0)" xlink:href="#au"/><use transform="matrix(0.05,0,0,0.05,54,0)" xlink:href="#ap"/></g><g id="K"><use transform="matrix(0.05,0,0,0.05,0,0)" xlink:href="#bl"/><use transform="matrix(0.05,0,0,0.05,10,0)" xlink:href="#an"/><use transform="matrix(0.05,0,0,0.05,20,0)" xlink:href="#ay"/><use transform="matrix(0.05,0,0,0.05,29,0)" xlink:href="#av"/><use transform="matrix(0.05,0,0,0.05,34,0)" xlink:href="#ak"/><use transform="matrix(0.05,0,0,0.05,39.95,0)" xlink:href="#aj"/><use transform="matrix(0.05,0,0,0.05,49.95,0)" xlink:href="#av"/><use transform="matrix(0.05,0,0,0.05,54.95,0)" xlink:href="#an"/><use transform="matrix(0.05,0,0,0.05,64.95,0)" xlink:href="#ao"/><use transform="matrix(0.05,0,0,0.05,74.95,0)" xlink:href="#ag"/><use transform="matrix(0.05,0,0,0.05,78.9,0)" xlink:href="#aj"/></g><path d="M169-182c-1-43-94-46-97-3 18 66 151 10 154 114 3 95-165 93-204 36-6-8-10-19-12-30l50-8c3 46 112 56 116 5-17-69-150-10-154-114-4-87 153-88 188-35 5 8 8 18 10 28" id="by"/><path d="M85 4C-2 5 27-109 22-190h50c7 57-23 150 33 157 60-5 35-97 40-157h50l1 190h-47c-2-12 1-28-3-38-12 25-28 42-61 42" id="bz"/><path d="M25-224v-37h50v37H25zM75 22c2 45-34 59-81 51V38c22 5 31-5 31-27v-201h50V22" id="bA"/><g id="L"><use transform="matrix(0.05,0,0,0.05,0,0)" xlink:href="#by"/><use transform="matrix(0.05,0,0,0.05,12,0)" xlink:href="#bz"/><use transform="matrix(0.05,0,0,0.05,22.950000000000003,0)" xlink:href="#bA"/><use transform="matrix(0.05,0,0,0.05,27.950000000000003,0)" xlink:href="#aV"/><use transform="matrix(0.05,0,0,0.05,37.95,0)" xlink:href="#aU"/><use transform="matrix(0.05,0,0,0.05,43.900000000000006,0)" xlink:href="#bg"/></g><path d="M140-251c81 0 123 46 123 126C263-46 219 4 140 4 59 4 17-45 17-125s42-126 123-126zm0 227c63 0 89-41 89-101s-29-99-89-99c-61 0-89 39-89 99S79-25 140-24" id="bB"/><g id="M"><use transform="matrix(0.05,0,0,0.05,0,0)" xlink:href="#aj"/><use transform="matrix(0.05,0,0,0.05,10,0)" xlink:href="#ao"/><use transform="matrix(0.05,0,0,0.05,20,0)" xlink:href="#ak"/><use transform="matrix(0.05,0,0,0.05,25.950000000000003,0)" xlink:href="#an"/><use transform="matrix(0.05,0,0,0.05,35.95,0)" xlink:href="#ao"/><use transform="matrix(0.05,0,0,0.05,45.95,0)" xlink:href="#aj"/><use transform="matrix(0.05,0,0,0.05,55.95,0)" xlink:href="#ak"/><use transform="matrix(0.05,0,0,0.05,61.900000000000006,0)" xlink:href="#bB"/><use transform="matrix(0.05,0,0,0.05,75.9,0)" xlink:href="#bm"/><use transform="matrix(0.05,0,0,0.05,85.9,0)" xlink:href="#ay"/><use transform="matrix(0.05,0,0,0.05,94.9,0)" xlink:href="#an"/><use transform="matrix(0.05,0,0,0.05,104.9,0)" xlink:href="#ak"/><use transform="matrix(0.05,0,0,0.05,110.85000000000001,0)" xlink:href="#at"/><use transform="matrix(0.05,0,0,0.05,119.85000000000001,0)" xlink:href="#aj"/><use transform="matrix(0.05,0,0,0.05,129.85000000000002,0)" xlink:href="#au"/><use transform="matrix(0.05,0,0,0.05,139.85000000000002,0)" xlink:href="#ap"/><use transform="matrix(0.05,0,0,0.05,149.85000000000002,0)" xlink:href="#ak"/><use transform="matrix(0.05,0,0,0.05,155.8,0)" xlink:href="#aq"/><use transform="matrix(0.05,0,0,0.05,161.75,0)" xlink:href="#bB"/><use transform="matrix(0.05,0,0,0.05,175.75,0)" xlink:href="#bm"/><use transform="matrix(0.05,0,0,0.05,185.75,0)" xlink:href="#ay"/><use transform="matrix(0.05,0,0,0.05,194.75,0)" xlink:href="#an"/><use transform="matrix(0.05,0,0,0.05,204.75,0)" xlink:href="#ak"/><use transform="matrix(0.05,0,0,0.05,210.69999999999996,0)" xlink:href="#at"/><use transform="matrix(0.05,0,0,0.05,219.69999999999996,0)" xlink:href="#aj"/><use transform="matrix(0.05,0,0,0.05,229.69999999999996,0)" xlink:href="#au"/><use transform="matrix(0.05,0,0,0.05,239.69999999999996,0)" xlink:href="#ap"/><use transform="matrix(0.05,0,0,0.05,249.69999999999996,0)" xlink:href="#ak"/></g><g id="N"><use transform="matrix(0.05,0,0,0.05,0,0)" xlink:href="#ap"/><use transform="matrix(0.05,0,0,0.05,10,0)" xlink:href="#bm"/><use transform="matrix(0.05,0,0,0.05,20,0)" xlink:href="#ay"/><use transform="matrix(0.05,0,0,0.05,29,0)" xlink:href="#ar"/><use transform="matrix(0.05,0,0,0.05,34.95,0)" xlink:href="#as"/><use transform="matrix(0.05,0,0,0.05,39.95,0)" xlink:href="#at"/><use transform="matrix(0.05,0,0,0.05,48.95,0)" xlink:href="#ap"/><use transform="matrix(0.05,0,0,0.05,58.95,0)" xlink:href="#ag"/><use transform="matrix(0.05,0,0,0.05,62.900000000000006,0)" xlink:href="#au"/></g><g id="O"><use transform="matrix(0.05,0,0,0.05,0,0)" xlink:href="#ak"/><use transform="matrix(0.05,0,0,0.05,5.95,0)" xlink:href="#an"/><use transform="matrix(0.05,0,0,0.05,15.949999999999998,0)" xlink:href="#aw"/><use transform="matrix(0.05,0,0,0.05,30.899999999999995,0)" xlink:href="#ap"/><use transform="matrix(0.05,0,0,0.05,40.9,0)" xlink:href="#at"/><use transform="matrix(0.05,0,0,0.05,49.9,0)" xlink:href="#an"/><use transform="matrix(0.05,0,0,0.05,59.900000000000006,0)" xlink:href="#ak"/><use transform="matrix(0.05,0,0,0.05,65.85,0)" xlink:href="#bB"/><use transform="matrix(0.05,0,0,0.05,79.85,0)" xlink:href="#bm"/><use transform="matrix(0.05,0,0,0.05,89.85,0)" xlink:href="#ay"/><use transform="matrix(0.05,0,0,0.05,98.85,0)" xlink:href="#an"/><use transform="matrix(0.05,0,0,0.05,108.84999999999998,0)" xlink:href="#ak"/><use transform="matrix(0.05,0,0,0.05,114.80000000000001,0)" xlink:href="#at"/><use transform="matrix(0.05,0,0,0.05,123.80000000000001,0)" xlink:href="#aj"/><use transform="matrix(0.05,0,0,0.05,133.8,0)" xlink:href="#au"/><use transform="matrix(0.05,0,0,0.05,143.8,0)" xlink:href="#ap"/><use transform="matrix(0.05,0,0,0.05,153.8,0)" xlink:href="#aq"/><use transform="matrix(0.05,0,0,0.05,159.75,0)" xlink:href="#ag"/><use transform="matrix(0.05,0,0,0.05,163.7,0)" xlink:href="#ah"/><use transform="matrix(0.05,0,0,0.05,173.7,0)" xlink:href="#av"/></g><g id="P"><use transform="matrix(0.05,0,0,0.05,0,0)" xlink:href="#ax"/><use transform="matrix(0.05,0,0,0.05,10,0)" xlink:href="#ap"/><use transform="matrix(0.05,0,0,0.05,20,0)" xlink:href="#ay"/><use transform="matrix(0.05,0,0,0.05,29,0)" xlink:href="#ar"/><use transform="matrix(0.05,0,0,0.05,34.95,0)" xlink:href="#as"/><use transform="matrix(0.05,0,0,0.05,39.95,0)" xlink:href="#at"/><use transform="matrix(0.05,0,0,0.05,48.95,0)" xlink:href="#ap"/><use transform="matrix(0.05,0,0,0.05,58.95,0)" xlink:href="#ag"/><use transform="matrix(0.05,0,0,0.05,62.900000000000006,0)" xlink:href="#au"/></g><g id="Q"><use transform="matrix(0.05,0,0,0.05,0,0)" xlink:href="#ah"/><use transform="matrix(0.05,0,0,0.05,10,0)" xlink:href="#ap"/><use transform="matrix(0.05,0,0,0.05,20,0)" xlink:href="#av"/><use transform="matrix(0.05,0,0,0.05,25,0)" xlink:href="#ag"/><use transform="matrix(0.05,0,0,0.05,28.950000000000003,0)" xlink:href="#aH"/><use transform="matrix(0.05,0,0,0.05,33.95,0)" xlink:href="#ag"/><use transform="matrix(0.05,0,0,0.05,37.900000000000006,0)" xlink:href="#ai"/><use transform="matrix(0.05,0,0,0.05,46.900000000000006,0)" xlink:href="#aj"/><use transform="matrix(0.05,0,0,0.05,56.900000000000006,0)" xlink:href="#ak"/><use transform="matrix(0.05,0,0,0.05,62.85,0)" xlink:href="#az"/><use transform="matrix(0.05,0,0,0.05,71.80000000000001,0)" xlink:href="#ap"/><use transform="matrix(0.05,0,0,0.05,81.80000000000001,0)" xlink:href="#au"/><use transform="matrix(0.05,0,0,0.05,91.80000000000001,0)" xlink:href="#ap"/><use transform="matrix(0.05,0,0,0.05,101.80000000000001,0)" xlink:href="#ay"/><use transform="matrix(0.05,0,0,0.05,110.80000000000001,0)" xlink:href="#aq"/><use transform="matrix(0.05,0,0,0.05,116.75,0)" xlink:href="#ar"/><use transform="matrix(0.05,0,0,0.05,122.7,0)" xlink:href="#as"/><use transform="matrix(0.05,0,0,0.05,127.7,0)" xlink:href="#at"/><use transform="matrix(0.05,0,0,0.05,136.70000000000002,0)" xlink:href="#ap"/><use transform="matrix(0.05,0,0,0.05,146.70000000000002,0)" xlink:href="#ag"/><use transform="matrix(0.05,0,0,0.05,150.65,0)" xlink:href="#au"/></g></defs></g></svg>